<svg width="96" height="96" xmlns="http://www.w3.org/2000/svg">
    <rect x="1" y="1" width="94" height="94" rx="12" ry="12" fill="#FFFFFF" stroke="#D1D5DB" stroke-width="2" stroke-dasharray=""/>
    <g transform="translate(48, 48)">
      <polygon points="-9.5,-16.5 -7.854201293581075,-11.765247584249853 -2.8426043859339254,-11.663118960624631 -6.83704175437357,-8.634752415750148 -5.385503233952688,-3.836881039375368 -9.5,-6.699999999999999 -13.61449676604731,-3.836881039375368 -12.162958245626431,-8.634752415750146 -16.157395614066075,-11.663118960624631 -11.145798706418926,-11.765247584249853 " fill="#F59E0B" stroke="#D97706" stroke-width="1"/><polygon points="9.5,-16.5 11.145798706418924,-11.765247584249853 16.157395614066075,-11.663118960624631 12.162958245626431,-8.634752415750148 13.614496766047312,-3.836881039375368 9.5,-6.699999999999999 5.385503233952689,-3.836881039375368 6.83704175437357,-8.634752415750146 2.8426043859339245,-11.663118960624631 7.854201293581075,-11.765247584249853 " fill="#F59E0B" stroke="#D97706" stroke-width="1"/><polygon points="-9.5,2.5 -7.854201293581075,7.2347524157501475 -2.8426043859339254,7.336881039375369 -6.83704175437357,10.365247584249852 -5.385503233952688,15.163118960624633 -9.5,12.3 -13.61449676604731,15.163118960624633 -12.162958245626431,10.365247584249854 -16.157395614066075,7.336881039375369 -11.145798706418926,7.2347524157501475 " fill="#F59E0B" stroke="#D97706" stroke-width="1"/><polygon points="9.5,2.5 11.145798706418924,7.2347524157501475 16.157395614066075,7.336881039375369 12.162958245626431,10.365247584249852 13.614496766047312,15.163118960624633 9.5,12.3 5.385503233952689,15.163118960624633 6.83704175437357,10.365247584249854 2.8426043859339245,7.336881039375369 7.854201293581075,7.2347524157501475 " fill="#F59E0B" stroke="#D97706" stroke-width="1"/>
    </g>
  </svg>