<svg width="96" height="96" xmlns="http://www.w3.org/2000/svg">
    <rect x="1" y="1" width="94" height="94" rx="12" ry="12" fill="#FFFFFF" stroke="#D1D5DB" stroke-width="2" stroke-dasharray=""/>
    <g transform="translate(48, 48)">
      <polygon points="-16.75,-16.5 -15.104201293581076,-11.765247584249853 -10.092604385933925,-11.663118960624631 -14.087041754373569,-8.634752415750148 -12.635503233952688,-3.836881039375368 -16.75,-6.699999999999999 -20.86449676604731,-3.836881039375368 -19.41295824562643,-8.634752415750146 -23.407395614066075,-11.663118960624631 -18.395798706418926,-11.765247584249853 " fill="#F59E0B" stroke="#D97706" stroke-width="1"/><polygon points="4.286263797015736e-16,-16.5 1.645798706418925,-11.765247584249853 6.657395614066075,-11.663118960624631 2.66295824562643,-8.634752415750148 4.114496766047312,-3.836881039375368 1.7145055188062946e-16,-6.699999999999999 -4.114496766047311,-3.836881039375368 -2.66295824562643,-8.634752415750146 -6.6573956140660755,-11.663118960624631 -1.6457987064189252,-11.765247584249853 " fill="#F59E0B" stroke="#D97706" stroke-width="1"/><polygon points="16.75,-16.5 18.395798706418926,-11.765247584249853 23.407395614066075,-11.663118960624631 19.41295824562643,-8.634752415750148 20.86449676604731,-3.836881039375368 16.75,-6.699999999999999 12.63550323395269,-3.836881039375368 14.087041754373569,-8.634752415750146 10.092604385933925,-11.663118960624631 15.104201293581074,-11.765247584249853 " fill="#F59E0B" stroke="#D97706" stroke-width="1"/><polygon points="-16.75,2.5 -15.104201293581076,7.2347524157501475 -10.092604385933925,7.336881039375369 -14.087041754373569,10.365247584249852 -12.635503233952688,15.163118960624633 -16.75,12.3 -20.86449676604731,15.163118960624633 -19.41295824562643,10.365247584249854 -23.407395614066075,7.336881039375369 -18.395798706418926,7.2347524157501475 " fill="#F59E0B" stroke="#D97706" stroke-width="1"/><polygon points="4.286263797015736e-16,2.5 1.645798706418925,7.2347524157501475 6.657395614066075,7.336881039375369 2.66295824562643,10.365247584249852 4.114496766047312,15.163118960624633 1.7145055188062946e-16,12.3 -4.114496766047311,15.163118960624633 -2.66295824562643,10.365247584249854 -6.6573956140660755,7.336881039375369 -1.6457987064189252,7.2347524157501475 " fill="#F59E0B" stroke="#D97706" stroke-width="1"/><polygon points="16.75,2.5 18.395798706418926,7.2347524157501475 23.407395614066075,7.336881039375369 19.41295824562643,10.365247584249852 20.86449676604731,15.163118960624633 16.75,12.3 12.63550323395269,15.163118960624633 14.087041754373569,10.365247584249854 10.092604385933925,7.336881039375369 15.104201293581074,7.2347524157501475 " fill="#F59E0B" stroke="#D97706" stroke-width="1"/>
    </g>
  </svg>