<svg width="96" height="96" xmlns="http://www.w3.org/2000/svg">
    <rect x="1" y="1" width="94" height="94" rx="12" ry="12" fill="#FFFFFF" stroke="#D1D5DB" stroke-width="2" stroke-dasharray=""/>
    <g transform="translate(48, 48)">
      <polygon points="-17,-8 -15.119087192664086,-2.588854381999832 -9.39154786963877,-2.472135954999579 -13.956619147855509,0.9888543819998317 -12.297717981660215,6.47213595499958 -17,3.2 -21.702282018339783,6.47213595499958 -20.04338085214449,0.9888543819998321 -24.60845213036123,-2.4721359549995783 -18.880912807335914,-2.5888543819998318 " fill="#F59E0B" stroke="#D97706" stroke-width="1"/><polygon points="4.898587196589413e-16,-8 1.880912807335914,-2.588854381999832 7.608452130361228,-2.472135954999579 3.0433808521444914,0.9888543819998317 4.702282018339785,6.47213595499958 1.9594348786357652e-16,3.2 -4.702282018339784,6.47213595499958 -3.0433808521444914,0.9888543819998321 -7.608452130361229,-2.4721359549995783 -1.8809128073359145,-2.5888543819998318 " fill="#F59E0B" stroke="#D97706" stroke-width="1"/><polygon points="17,-8 18.880912807335914,-2.588854381999832 24.60845213036123,-2.472135954999579 20.04338085214449,0.9888543819998317 21.702282018339787,6.47213595499958 17,3.2 12.297717981660217,6.47213595499958 13.956619147855509,0.9888543819998321 9.39154786963877,-2.4721359549995783 15.119087192664086,-2.5888543819998318 " fill="#F59E0B" stroke="#D97706" stroke-width="1"/>
    </g>
  </svg>