<svg width="96" height="96" xmlns="http://www.w3.org/2000/svg">
    <rect x="1" y="1" width="94" height="94" rx="12" ry="12" fill="#FFFFFF" stroke="#D1D5DB" stroke-width="2" stroke-dasharray=""/>
    <g transform="translate(48, 48)">
      <polygon points="-9.5,-13 -8.677100646790537,-10.632623792124926 -6.171302192966962,-10.581559480312317 -8.168520877186785,-9.067376207875073 -7.442751616976344,-6.6684405196876835 -9.5,-8.1 -11.557248383023655,-6.6684405196876835 -10.831479122813215,-9.067376207875073 -12.828697807033038,-10.581559480312315 -10.322899353209463,-10.632623792124926" fill="#F59E0B" stroke="#D97706" stroke-width="1"/><polygon points="9.5,-13 10.322899353209463,-10.632623792124926 12.828697807033038,-10.581559480312317 10.831479122813215,-9.067376207875073 11.557248383023655,-6.6684405196876835 9.5,-8.1 7.442751616976345,-6.6684405196876835 8.168520877186785,-9.067376207875073 6.171302192966962,-10.581559480312315 8.677100646790537,-10.632623792124926" fill="#F59E0B" stroke="#D97706" stroke-width="1"/><polygon points="-9.5,6 -8.677100646790537,8.367376207875074 -6.171302192966962,8.418440519687683 -8.168520877186785,9.932623792124927 -7.442751616976344,12.331559480312317 -9.5,10.9 -11.557248383023655,12.331559480312317 -10.831479122813215,9.932623792124927 -12.828697807033038,8.418440519687685 -10.322899353209463,8.367376207875074" fill="#F59E0B" stroke="#D97706" stroke-width="1"/><polygon points="9.5,6 10.322899353209463,8.367376207875074 12.828697807033038,8.418440519687683 10.831479122813215,9.932623792124927 11.557248383023655,12.331559480312317 9.5,10.9 7.442751616976345,12.331559480312317 8.168520877186785,9.932623792124927 6.171302192966962,8.418440519687685 8.677100646790537,8.367376207875074" fill="#F59E0B" stroke="#D97706" stroke-width="1"/>
    </g>
  </svg>