<svg width="96" height="96" xmlns="http://www.w3.org/2000/svg">
    <rect x="1" y="1" width="94" height="94" rx="12" ry="12" fill="#FFFFFF" stroke="#D1D5DB" stroke-width="2" stroke-dasharray=""/>
    <g transform="translate(48, 48)">
      <polygon points="-17,-4 -16.05954359633204,-1.294427190999916 -13.195773934819385,-1.2360679774997896 -15.478309573927755,0.49442719099991583 -14.648858990830107,3.23606797749979 -17,1.6 -19.351141009169893,3.23606797749979 -18.521690426072247,0.49442719099991606 -20.804226065180615,-1.2360679774997891 -17.94045640366796,-1.2944271909999159" fill="#F59E0B" stroke="#D97706" stroke-width="1"/><polygon points="2.4492935982947064e-16,-4 0.940456403667957,-1.294427190999916 3.804226065180614,-1.2360679774997896 1.5216904260722457,0.49442719099991583 2.3511410091698925,3.23606797749979 9.797174393178826e-17,1.6 -2.351141009169892,3.23606797749979 -1.5216904260722457,0.49442719099991606 -3.8042260651806146,-1.2360679774997891 -0.9404564036679572,-1.2944271909999159" fill="#F59E0B" stroke="#D97706" stroke-width="1"/><polygon points="17,-4 17.94045640366796,-1.294427190999916 20.804226065180615,-1.2360679774997896 18.521690426072247,0.49442719099991583 19.351141009169893,3.23606797749979 17,1.6 14.648858990830108,3.23606797749979 15.478309573927755,0.49442719099991606 13.195773934819385,-1.2360679774997891 16.05954359633204,-1.2944271909999159" fill="#F59E0B" stroke="#D97706" stroke-width="1"/>
    </g>
  </svg>