<svg width="96" height="96" xmlns="http://www.w3.org/2000/svg">
    <rect x="1" y="1" width="94" height="94" rx="12" ry="12" fill="#FFFFFF" stroke="#D1D5DB" stroke-width="2" stroke-dasharray=""/>
    <g transform="translate(48, 48)">
      <polygon points="-16.75,-13 -15.927100646790537,-10.632623792124926 -13.421302192966962,-10.581559480312317 -15.418520877186785,-9.067376207875073 -14.692751616976345,-6.6684405196876835 -16.75,-8.1 -18.807248383023655,-6.6684405196876835 -18.081479122813214,-9.067376207875073 -20.078697807033038,-10.581559480312315 -17.57289935320946,-10.632623792124926" fill="#F59E0B" stroke="#D97706" stroke-width="1"/><polygon points="2.143131898507868e-16,-13 0.8228993532094625,-10.632623792124926 3.3286978070330373,-10.581559480312317 1.331479122813215,-9.067376207875073 2.057248383023656,-6.6684405196876835 8.572527594031473e-17,-8.1 -2.0572483830236554,-6.6684405196876835 -1.331479122813215,-9.067376207875073 -3.3286978070330377,-10.581559480312315 -0.8228993532094626,-10.632623792124926" fill="#F59E0B" stroke="#D97706" stroke-width="1"/><polygon points="16.75,-13 17.57289935320946,-10.632623792124926 20.078697807033038,-10.581559480312317 18.081479122813214,-9.067376207875073 18.807248383023655,-6.6684405196876835 16.75,-8.1 14.692751616976345,-6.6684405196876835 15.418520877186785,-9.067376207875073 13.421302192966962,-10.581559480312315 15.927100646790537,-10.632623792124926" fill="#F59E0B" stroke="#D97706" stroke-width="1"/><polygon points="-8.375,6 -7.552100646790538,8.367376207875074 -5.046302192966962,8.418440519687683 -7.0435208771867845,9.932623792124927 -6.317751616976344,12.331559480312317 -8.375,10.9 -10.432248383023655,12.331559480312317 -9.706479122813215,9.932623792124927 -11.703697807033038,8.418440519687685 -9.197899353209463,8.367376207875074" fill="#F59E0B" stroke="#D97706" stroke-width="1"/><polygon points="8.375,6 9.197899353209463,8.367376207875074 11.703697807033038,8.418440519687683 9.706479122813215,9.932623792124927 10.432248383023655,12.331559480312317 8.375,10.9 6.317751616976345,12.331559480312317 7.0435208771867845,9.932623792124927 5.046302192966962,8.418440519687685 7.552100646790537,8.367376207875074" fill="#F59E0B" stroke="#D97706" stroke-width="1"/>
    </g>
  </svg>