<svg width="96" height="96" xmlns="http://www.w3.org/2000/svg">
    <rect x="1" y="1" width="94" height="94" rx="12" ry="12" fill="#FFFFFF" stroke="#D1D5DB" stroke-width="2" stroke-dasharray=""/>
    <g transform="translate(48, 48)">
      <defs>
      <clipPath id="leftHalf7g125ukkr">
        <rect x="-37.5" y="-37.5" width="37.5" height="75" transform="rotate(0 0 0)" />
      </clipPath>
      <clipPath id="rightHalf7g125ukkr">
        <rect x="0" y="-37.5" width="37.5" height="75" transform="rotate(0 0 0)" />
      </clipPath>
    </defs>
    <polygon points="1.5308084989341915e-15,-25 5.877852522924732,-8.090169943749475 23.776412907378838,-7.7254248593736845 9.510565162951535,3.090169943749474 14.694631307311829,20.225424859373685 6.123233995736766e-16,10 -14.694631307311825,20.225424859373685 -9.510565162951535,3.090169943749475 -23.77641290737884,-7.725424859373682 -5.877852522924733,-8.090169943749473 " fill="#0D9488" stroke="#1D4ED8" stroke-width="1" clip-path="url(#leftHalf7g125ukkr)"/>
    <polygon points="1.5308084989341915e-15,-25 5.877852522924732,-8.090169943749475 23.776412907378838,-7.7254248593736845 9.510565162951535,3.090169943749474 14.694631307311829,20.225424859373685 6.123233995736766e-16,10 -14.694631307311825,20.225424859373685 -9.510565162951535,3.090169943749475 -23.77641290737884,-7.725424859373682 -5.877852522924733,-8.090169943749473 " fill="#2563EB" stroke="#1D4ED8" stroke-width="1" clip-path="url(#rightHalf7g125ukkr)"/>
    </g>
  </svg>