<svg width="96" height="96" xmlns="http://www.w3.org/2000/svg">
    <rect x="1" y="1" width="94" height="94" rx="12" ry="12" fill="#FFFFFF" stroke="#D1D5DB" stroke-width="2" stroke-dasharray=""/>
    <g transform="translate(48, 48)">
      <circle cx="-21.666666666666664" cy="-19.5" r="2.5" fill="#2563EB" stroke="#1D4ED8" stroke-width="1"/><circle cx="-10.833333333333332" cy="-19.5" r="2.5" fill="#2563EB" stroke="#1D4ED8" stroke-width="1"/><circle cx="0" cy="-19.5" r="2.5" fill="#2563EB" stroke="#1D4ED8" stroke-width="1"/><circle cx="10.833333333333336" cy="-19.5" r="2.5" fill="#2563EB" stroke="#1D4ED8" stroke-width="1"/><circle cx="21.666666666666664" cy="-19.5" r="2.5" fill="#2563EB" stroke="#1D4ED8" stroke-width="1"/><circle cx="-21.666666666666664" cy="-6.5" r="2.5" fill="#2563EB" stroke="#1D4ED8" stroke-width="1"/><circle cx="-10.833333333333332" cy="-6.5" r="2.5" fill="#2563EB" stroke="#1D4ED8" stroke-width="1"/><circle cx="0" cy="-6.5" r="2.5" fill="#2563EB" stroke="#1D4ED8" stroke-width="1"/><circle cx="10.833333333333336" cy="-6.5" r="2.5" fill="#2563EB" stroke="#1D4ED8" stroke-width="1"/><circle cx="21.666666666666664" cy="-6.5" r="2.5" fill="#2563EB" stroke="#1D4ED8" stroke-width="1"/><circle cx="-21.666666666666664" cy="6.5" r="2.5" fill="#2563EB" stroke="#1D4ED8" stroke-width="1"/><circle cx="-10.833333333333332" cy="6.5" r="2.5" fill="#2563EB" stroke="#1D4ED8" stroke-width="1"/><circle cx="0" cy="6.5" r="2.5" fill="#2563EB" stroke="#1D4ED8" stroke-width="1"/><circle cx="10.833333333333336" cy="6.5" r="2.5" fill="#2563EB" stroke="#1D4ED8" stroke-width="1"/><circle cx="21.666666666666664" cy="6.5" r="2.5" fill="#2563EB" stroke="#1D4ED8" stroke-width="1"/><circle cx="-21.666666666666664" cy="19.5" r="2.5" fill="#2563EB" stroke="#1D4ED8" stroke-width="1"/><circle cx="-10.833333333333332" cy="19.5" r="2.5" fill="#2563EB" stroke="#1D4ED8" stroke-width="1"/><circle cx="0" cy="19.5" r="2.5" fill="#2563EB" stroke="#1D4ED8" stroke-width="1"/><circle cx="10.833333333333336" cy="19.5" r="2.5" fill="#2563EB" stroke="#1D4ED8" stroke-width="1"/><circle cx="21.666666666666664" cy="19.5" r="2.5" fill="#2563EB" stroke="#1D4ED8" stroke-width="1"/>
    </g>
  </svg>