<svg width="96" height="96" xmlns="http://www.w3.org/2000/svg">
    <rect x="1" y="1" width="94" height="94" rx="12" ry="12" fill="#FFFFFF" stroke="#D1D5DB" stroke-width="2" stroke-dasharray=""/>
    <g transform="translate(48, 48)">
      <circle cx="-21.333333333333336" cy="-21.333333333333336" r="2" fill="#2563EB" stroke="#1D4ED8" stroke-width="1"/><circle cx="-10.666666666666668" cy="-21.333333333333336" r="2" fill="#2563EB" stroke="#1D4ED8" stroke-width="1"/><circle cx="0" cy="-21.333333333333336" r="2" fill="#2563EB" stroke="#1D4ED8" stroke-width="1"/><circle cx="10.666666666666664" cy="-21.333333333333336" r="2" fill="#2563EB" stroke="#1D4ED8" stroke-width="1"/><circle cx="21.333333333333336" cy="-21.333333333333336" r="2" fill="#2563EB" stroke="#1D4ED8" stroke-width="1"/><circle cx="-21.333333333333336" cy="-10.666666666666668" r="2" fill="#2563EB" stroke="#1D4ED8" stroke-width="1"/><circle cx="-10.666666666666668" cy="-10.666666666666668" r="2" fill="#2563EB" stroke="#1D4ED8" stroke-width="1"/><circle cx="0" cy="-10.666666666666668" r="2" fill="#2563EB" stroke="#1D4ED8" stroke-width="1"/><circle cx="10.666666666666664" cy="-10.666666666666668" r="2" fill="#2563EB" stroke="#1D4ED8" stroke-width="1"/><circle cx="21.333333333333336" cy="-10.666666666666668" r="2" fill="#2563EB" stroke="#1D4ED8" stroke-width="1"/><circle cx="-21.333333333333336" cy="0" r="2" fill="#2563EB" stroke="#1D4ED8" stroke-width="1"/><circle cx="-10.666666666666668" cy="0" r="2" fill="#2563EB" stroke="#1D4ED8" stroke-width="1"/><circle cx="0" cy="0" r="2" fill="#2563EB" stroke="#1D4ED8" stroke-width="1"/><circle cx="10.666666666666664" cy="0" r="2" fill="#2563EB" stroke="#1D4ED8" stroke-width="1"/><circle cx="21.333333333333336" cy="0" r="2" fill="#2563EB" stroke="#1D4ED8" stroke-width="1"/><circle cx="-21.333333333333336" cy="10.666666666666664" r="2" fill="#2563EB" stroke="#1D4ED8" stroke-width="1"/><circle cx="-10.666666666666668" cy="10.666666666666664" r="2" fill="#2563EB" stroke="#1D4ED8" stroke-width="1"/><circle cx="0" cy="10.666666666666664" r="2" fill="#2563EB" stroke="#1D4ED8" stroke-width="1"/><circle cx="10.666666666666664" cy="10.666666666666664" r="2" fill="#2563EB" stroke="#1D4ED8" stroke-width="1"/><circle cx="21.333333333333336" cy="10.666666666666664" r="2" fill="#2563EB" stroke="#1D4ED8" stroke-width="1"/><circle cx="0" cy="21.333333333333336" r="2" fill="#2563EB" stroke="#1D4ED8" stroke-width="1"/>
    </g>
  </svg>