<svg width="96" height="96" xmlns="http://www.w3.org/2000/svg">
    <rect x="1" y="1" width="94" height="94" rx="12" ry="12" fill="#FFFFFF" stroke="#D1D5DB" stroke-width="2" stroke-dasharray=""/>
    <g transform="translate(48, 48)">
      <defs>
      <clipPath id="leftHalfoee4xgxqc">
        <rect x="-31.5" y="-31.5" width="31.5" height="63" transform="rotate(180 0 0)" />
      </clipPath>
      <clipPath id="rightHalfoee4xgxqc">
        <rect x="0" y="-31.5" width="31.5" height="63" transform="rotate(180 0 0)" />
      </clipPath>
    </defs>
    <polygon points="1.2858791391047208e-15,-21 4.937396119256775,-6.795742752749559 19.972186842198223,-6.489356881873896 7.98887473687929,2.5957427527495582 12.343490298141935,16.989356881873896 5.143516556418884e-16,8.4 -12.343490298141933,16.989356881873896 -7.98887473687929,2.595742752749559 -19.972186842198226,-6.489356881873893 -4.937396119256776,-6.7957427527495575 " fill="#DC2626" stroke="#1D4ED8" stroke-width="1" clip-path="url(#leftHalfoee4xgxqc)"/>
    <polygon points="1.2858791391047208e-15,-21 4.937396119256775,-6.795742752749559 19.972186842198223,-6.489356881873896 7.98887473687929,2.5957427527495582 12.343490298141935,16.989356881873896 5.143516556418884e-16,8.4 -12.343490298141933,16.989356881873896 -7.98887473687929,2.595742752749559 -19.972186842198226,-6.489356881873893 -4.937396119256776,-6.7957427527495575 " fill="#2563EB" stroke="#1D4ED8" stroke-width="1" clip-path="url(#rightHalfoee4xgxqc)"/>
    </g>
  </svg>