<svg width="96" height="96" xmlns="http://www.w3.org/2000/svg">
    <rect x="1" y="1" width="94" height="94" rx="12" ry="12" fill="#FFFFFF" stroke="#D1D5DB" stroke-width="2" stroke-dasharray=""/>
    <g transform="translate(48, 48)">
      <defs>
      <clipPath id="leftHalfmsrjoce4v">
        <rect x="-22.5" y="-22.5" width="22.5" height="45" transform="rotate(135 0 0)" />
      </clipPath>
      <clipPath id="rightHalfmsrjoce4v">
        <rect x="0" y="-22.5" width="22.5" height="45" transform="rotate(135 0 0)" />
      </clipPath>
    </defs>
    <polygon points="9.18485099360515e-16,-15 3.526711513754839,-4.854101966249685 14.265847744427303,-4.635254915624211 5.706339097770921,1.8541019662496843 8.816778784387097,12.135254915624213 3.6739403974420594e-16,6 -8.816778784387095,12.135254915624213 -5.706339097770921,1.8541019662496852 -14.265847744427305,-4.635254915624209 -3.5267115137548393,-4.854101966249684 " fill="#0891B2" stroke="#1D4ED8" stroke-width="1" clip-path="url(#leftHalfmsrjoce4v)"/>
    <polygon points="9.18485099360515e-16,-15 3.526711513754839,-4.854101966249685 14.265847744427303,-4.635254915624211 5.706339097770921,1.8541019662496843 8.816778784387097,12.135254915624213 3.6739403974420594e-16,6 -8.816778784387095,12.135254915624213 -5.706339097770921,1.8541019662496852 -14.265847744427305,-4.635254915624209 -3.5267115137548393,-4.854101966249684 " fill="#EC4899" stroke="#1D4ED8" stroke-width="1" clip-path="url(#rightHalfmsrjoce4v)"/>
    </g>
  </svg>