<svg width="96" height="96" xmlns="http://www.w3.org/2000/svg">
    <rect x="1" y="1" width="94" height="94" rx="12" ry="12" fill="#FFFFFF" stroke="#D1D5DB" stroke-width="2" stroke-dasharray=""/>
    <g transform="translate(48, 48)">
      <g transform="translate(-12, -6)"><polygon points="0,-4 2.4,0 0,4 -2.4,0" fill="#DC2626" stroke="#B91C1C" stroke-width="2" transform="rotate(0 0 0)"/></g><g transform="translate(0, -6)"><polygon points="0,-4 2.4,0 0,4 -2.4,0" fill="#DC2626" stroke="#B91C1C" stroke-width="2" transform="rotate(0 0 0)"/></g><g transform="translate(12, -6)"><polygon points="0,-4 2.4,0 0,4 -2.4,0" fill="#DC2626" stroke="#B91C1C" stroke-width="2" transform="rotate(0 0 0)"/></g><g transform="translate(-12, 6)"><polygon points="0,-4 2.4,0 0,4 -2.4,0" fill="#DC2626" stroke="#B91C1C" stroke-width="2" transform="rotate(0 0 0)"/></g><g transform="translate(0, 6)"><polygon points="0,-4 2.4,0 0,4 -2.4,0" fill="#DC2626" stroke="#B91C1C" stroke-width="2" transform="rotate(0 0 0)"/></g><g transform="translate(12, 6)"><polygon points="0,-4 2.4,0 0,4 -2.4,0" fill="#DC2626" stroke="#B91C1C" stroke-width="2" transform="rotate(0 0 0)"/></g>
    </g>
  </svg>